<?xml version="1.0" encoding="UTF-8"?>
<svg width="219px" height="28px" viewBox="0 0 219 28" version="1.1" xmlns="http://www.w3.org/2000/svg" xmlns:xlink="http://www.w3.org/1999/xlink">
    <!-- Generator: Sketch 41.1 (35376) - http://www.bohemiancoding.com/sketch -->
    <title>Experience</title>
    <desc>Created with Sketch.</desc>
    <defs></defs>
    <g id="Desktop-🔥-🖥" stroke="none" stroke-width="1" fill="none" fill-rule="evenodd" opacity="0.717617754">
        <g id="Start-Page" transform="translate(-612.000000, -669.000000)" fill="#3B3B3B">
            <g id="Group-3" transform="translate(276.000000, 144.000000)">
                <g id="Experience" transform="translate(336.000000, 525.000000)">
                    <path d="M149.49,11.788 C149.49,14.588014 148.659342,16.8186584 146.998,18.48 C145.112657,20.4586766 142.658015,21.448 139.634,21.448 C136.740652,21.448 134.281343,20.4446767 132.256,18.438 C130.230657,16.4313233 129.218,13.9440148 129.218,10.976 C129.218,8.00798516 130.230657,5.5206767 132.256,3.514 C134.281343,1.5073233 136.740652,0.504 139.634,0.504 C141.071341,0.504 142.443327,0.7839972 143.75,1.344 C145.056673,1.9040028 146.101996,2.650662 146.886,3.584 L145.122,5.348 C143.79666,3.7613254 141.967345,2.968 139.634,2.968 C137.524656,2.968 135.700008,3.70999258 134.16,5.194 C132.619992,6.67800742 131.85,8.60532148 131.85,10.976 C131.85,13.3466785 132.619992,15.2739926 134.16,16.758 C135.700008,18.2420074 137.524656,18.984 139.634,18.984 C141.874011,18.984 143.740659,18.2373408 145.234,16.744 C146.204672,15.7733285 146.764666,14.4200087 146.914,12.684 L139.634,12.684 L139.634,10.276 L149.35,10.276 C149.443334,10.7986693 149.49,11.3026642 149.49,11.788 Z M158.45,6.832 C160.503344,6.832 162.19266,7.52732638 163.518,8.918 C164.84334,10.3086736 165.506,12.0493229 165.506,14.14 C165.506,16.2306771 164.84334,17.9713264 163.518,19.362 C162.19266,20.7526736 160.503344,21.448 158.45,21.448 C156.396656,21.448 154.70734,20.7526736 153.382,19.362 C152.05666,17.9713264 151.394,16.2306771 151.394,14.14 C151.394,12.0493229 152.05666,10.3086736 153.382,8.918 C154.70734,7.52732638 156.396656,6.832 158.45,6.832 Z M158.45,19.096 C159.663339,19.096 160.713329,18.6433379 161.6,17.738 C162.486671,16.8326621 162.93,15.6333408 162.93,14.14 C162.93,12.6466592 162.486671,11.4473379 161.6,10.542 C160.713329,9.63666214 159.663339,9.184 158.45,9.184 C157.236661,9.184 156.186671,9.63666214 155.3,10.542 C154.413329,11.4473379 153.97,12.6466592 153.97,14.14 C153.97,15.6333408 154.413329,16.8326621 155.3,17.738 C156.186671,18.6433379 157.236661,19.096 158.45,19.096 Z M174.13,6.832 C176.183344,6.832 177.87266,7.52732638 179.198,8.918 C180.52334,10.3086736 181.186,12.0493229 181.186,14.14 C181.186,16.2306771 180.52334,17.9713264 179.198,19.362 C177.87266,20.7526736 176.183344,21.448 174.13,21.448 C172.076656,21.448 170.38734,20.7526736 169.062,19.362 C167.73666,17.9713264 167.074,16.2306771 167.074,14.14 C167.074,12.0493229 167.73666,10.3086736 169.062,8.918 C170.38734,7.52732638 172.076656,6.832 174.13,6.832 Z M174.13,19.096 C175.343339,19.096 176.393329,18.6433379 177.28,17.738 C178.166671,16.8326621 178.61,15.6333408 178.61,14.14 C178.61,12.6466592 178.166671,11.4473379 177.28,10.542 C176.393329,9.63666214 175.343339,9.184 174.13,9.184 C172.916661,9.184 171.866671,9.63666214 170.98,10.542 C170.093329,11.4473379 169.65,12.6466592 169.65,14.14 C169.65,15.6333408 170.093329,16.8326621 170.98,17.738 C171.866671,18.6433379 172.916661,19.096 174.13,19.096 Z M189.502,27.496 C187.877992,27.496 186.552672,27.0900041 185.526,26.278 C184.499328,25.4659959 183.762002,24.5373386 183.314,23.492 L185.666,22.512 C185.927335,23.2586704 186.407996,23.8839975 187.108,24.388 C187.808003,24.8920025 188.605996,25.144 189.502,25.144 C190.920674,25.144 192.035996,24.7193376 192.848,23.87 C193.660004,23.0206624 194.066,21.8680073 194.066,20.412 L194.066,19.096 L193.954,19.096 C193.505998,19.7680034 192.871337,20.3279978 192.05,20.776 C191.228663,21.2240022 190.304672,21.448 189.278,21.448 C187.504658,21.448 185.974006,20.748007 184.686,19.348 C183.397994,17.947993 182.754,16.2120104 182.754,14.14 C182.754,12.0679896 183.397994,10.332007 184.686,8.932 C185.974006,7.531993 187.504658,6.832 189.278,6.832 C190.304672,6.832 191.228663,7.05599776 192.05,7.504 C192.871337,7.95200224 193.505998,8.51199664 193.954,9.184 L194.066,9.184 L194.066,7.28 L196.53,7.28 L196.53,20.3 C196.53,22.6520118 195.848673,24.4393272 194.486,25.662 C193.123327,26.8846728 191.46201,27.496 189.502,27.496 Z M189.698,19.096 C190.911339,19.096 191.942662,18.6480045 192.792,17.752 C193.641338,16.8559955 194.066,15.6520076 194.066,14.14 C194.066,12.6279924 193.641338,11.4240045 192.792,10.528 C191.942662,9.63199552 190.911339,9.184 189.698,9.184 C188.503327,9.184 187.476671,9.63666214 186.618,10.542 C185.759329,11.4473379 185.33,12.6466592 185.33,14.14 C185.33,15.6333408 185.759329,16.8326621 186.618,17.738 C187.476671,18.6433379 188.503327,19.096 189.698,19.096 Z M202.242,21 L199.666,21 L199.666,0.952 L202.242,0.952 L202.242,21 Z M211.594,21.448 C209.52199,21.448 207.83734,20.7573402 206.54,19.376 C205.24266,17.9946598 204.594,16.2493439 204.594,14.14 C204.594,12.1426567 205.223994,10.4253405 206.484,8.988 C207.744006,7.55065948 209.35399,6.832 211.314,6.832 C213.348677,6.832 214.977327,7.49466004 216.2,8.82 C217.422673,10.14534 218.034,11.9186556 218.034,14.14 L218.006,14.616 L207.17,14.616 C207.244667,15.9973402 207.706662,17.0893293 208.556,17.892 C209.405338,18.6946707 210.399328,19.096 211.538,19.096 C213.386009,19.096 214.636663,18.3120078 215.29,16.744 L217.586,17.696 C217.137998,18.7600053 216.400672,19.6513297 215.374,20.37 C214.347328,21.0886703 213.087341,21.448 211.594,21.448 Z M215.29,12.488 C215.234,11.7039961 214.87467,10.9573369 214.212,10.248 C213.54933,9.53866312 212.564673,9.184 211.258,9.184 C210.305995,9.184 209.480003,9.48266368 208.78,10.08 C208.079996,10.6773363 207.599335,11.479995 207.338,12.488 L215.29,12.488 Z" id="Google"></path>
                    <path d="M6.29516602,17 L6.03881836,15.8574219 L5.98022461,15.8574219 C5.57983198,16.3603541 5.18066605,16.7009268 4.78271484,16.8791504 C4.38476364,17.0573739 3.88305967,17.1464844 3.27758789,17.1464844 C2.48656831,17.1464844 1.86645732,16.9389669 1.41723633,16.5239258 C0.968015332,16.1088846 0.743408203,15.522953 0.743408203,14.7661133 C0.743408203,13.1352458 2.03001643,12.2807621 4.60327148,12.2026367 L5.96557617,12.1513672 L5.96557617,11.675293 C5.96557617,11.0649384 5.83374155,10.6145034 5.57006836,10.3239746 C5.30639517,10.0334458 4.88403611,9.88818359 4.30297852,9.88818359 C3.8781717,9.88818359 3.47656439,9.95165952 3.09814453,10.0786133 C2.71972467,10.205567 2.36450361,10.3471672 2.0324707,10.503418 L1.62963867,9.51464844 C2.03491414,9.29980361 2.47680425,9.13134827 2.95532227,9.00927734 C3.43384028,8.88720642 3.90746836,8.82617188 4.3762207,8.82617188 C5.34790525,8.82617188 6.07055427,9.04101348 6.54418945,9.47070312 C7.01782463,9.90039277 7.25463867,10.5839797 7.25463867,11.5214844 L7.25463867,17 L6.29516602,17 Z M3.57788086,16.0844727 C4.31518923,16.0844727 4.89501742,15.8855 5.31738281,15.4875488 C5.73974821,15.0895976 5.95092773,14.5244177 5.95092773,13.7919922 L5.95092773,13.0668945 L4.7644043,13.1181641 C3.84154812,13.1523439 3.16894742,13.2988268 2.74658203,13.5576172 C2.32421664,13.8164075 2.11303711,14.2241183 2.11303711,14.7807617 C2.11303711,15.2006857 2.24120966,15.5229481 2.49755859,15.7475586 C2.75390753,15.9721691 3.11401135,16.0844727 3.57788086,16.0844727 Z M15.2233887,17 L15.2233887,11.8583984 C15.2233887,11.2040983 15.0781265,10.7170426 14.7875977,10.3972168 C14.4970689,10.077391 14.0417511,9.91748047 13.4216309,9.91748047 C12.5964314,9.91748047 11.9970722,10.1457497 11.6235352,10.6022949 C11.2499981,11.0588402 11.0632324,11.8022409 11.0632324,12.8325195 L11.0632324,17 L9.74487305,17 L9.74487305,8.95800781 L10.8068848,8.95800781 L11.0046387,10.0566406 L11.0778809,10.0566406 C11.3269055,9.66113083 11.6760231,9.35473741 12.1252441,9.13745117 C12.5744651,8.92016493 13.0700656,8.81152344 13.6120605,8.81152344 C14.5983936,8.81152344 15.3308082,9.05077886 15.8093262,9.52929688 C16.2878442,10.0078149 16.5270996,10.7524364 16.5270996,11.7631836 L16.5270996,17 L15.2233887,17 Z M26.3342285,17.1464844 C25.1281678,17.1464844 24.1821323,16.7814978 23.4960938,16.0515137 C22.8100552,15.3215296 22.467041,14.3169009 22.467041,13.0375977 C22.467041,11.7485287 22.786862,10.7219276 23.4265137,9.95776367 C24.0661653,9.19359969 24.9304145,8.81152344 26.0192871,8.81152344 C27.0300344,8.81152344 27.8356904,9.13744791 28.4362793,9.78930664 C29.0368682,10.4411654 29.3371582,11.3237249 29.3371582,12.4370117 L29.3371582,13.2353516 L23.8293457,13.2353516 C23.8537599,14.1484421 24.0856912,14.8417945 24.5251465,15.3154297 C24.9646018,15.7890649 25.5871542,16.0258789 26.3928223,16.0258789 C26.8225119,16.0258789 27.2302227,15.9880375 27.6159668,15.9123535 C28.0017109,15.8366695 28.4533666,15.6889659 28.9709473,15.4692383 L28.9709473,16.6264648 C28.5266091,16.8168955 28.1091328,16.9511715 27.7185059,17.0292969 C27.3278789,17.1074223 26.8664577,17.1464844 26.3342285,17.1464844 Z M26.0046387,9.88818359 C25.3747527,9.88818359 24.8767108,10.0908183 24.510498,10.4960938 C24.1442853,10.9013692 23.9270023,11.4653284 23.8586426,12.1879883 L27.9528809,12.1879883 C27.9431152,11.4360314 27.7697771,10.864748 27.4328613,10.4741211 C27.0959456,10.0834941 26.6198761,9.88818359 26.0046387,9.88818359 Z M33.2775879,12.8911133 L30.501709,8.95800781 L32.0031738,8.95800781 L34.0759277,11.9902344 L36.126709,8.95800781 L37.6135254,8.95800781 L34.8376465,12.8911133 L37.767334,17 L36.2658691,17 L34.0759277,13.7919922 L31.8566895,17 L30.369873,17 L33.2775879,12.8911133 Z M43.1140137,17.1464844 C42.0349067,17.1464844 41.2048369,16.7583047 40.6237793,15.9819336 L40.5358887,15.9819336 L40.5651855,16.2822266 C40.6042482,16.6630878 40.6237793,17.0024399 40.6237793,17.300293 L40.6237793,20.6035156 L39.3054199,20.6035156 L39.3054199,8.95800781 L40.3894043,8.95800781 L40.5651855,10.0566406 L40.6237793,10.0566406 C40.9362809,9.6171853 41.2976054,9.29980566 41.7077637,9.10449219 C42.117922,8.90917871 42.59155,8.81152344 43.1286621,8.81152344 C44.1735892,8.81152344 44.9853487,9.17406864 45.5639648,9.89916992 C46.142581,10.6242712 46.4318848,11.6459895 46.4318848,12.9643555 C46.4318848,14.2778386 46.1413603,15.303219 45.5603027,16.0405273 C44.9792451,16.7778357 44.1638236,17.1464844 43.1140137,17.1464844 Z M42.8942871,9.91748047 C42.0983847,9.91748047 41.5234393,10.1420876 41.1694336,10.5913086 C40.8154279,11.0405296 40.633545,11.7460889 40.6237793,12.7080078 L40.6237793,12.9643555 C40.6237793,14.0532281 40.8044416,14.8405737 41.1657715,15.326416 C41.5271014,15.8122583 42.1130331,16.0551758 42.923584,16.0551758 C43.5974155,16.0551758 44.1235333,15.781741 44.5019531,15.2348633 C44.880373,14.6879855 45.0695801,13.9262744 45.0695801,12.949707 C45.0695801,11.9682568 44.880373,11.2175319 44.5019531,10.6975098 C44.1235333,10.1774876 43.58765,9.91748047 42.8942871,9.91748047 Z M51.9543457,17.1464844 C50.748285,17.1464844 49.8022495,16.7814978 49.1162109,16.0515137 C48.4301724,15.3215296 48.0871582,14.3169009 48.0871582,13.0375977 C48.0871582,11.7485287 48.4069792,10.7219276 49.0466309,9.95776367 C49.6862825,9.19359969 50.5505317,8.81152344 51.6394043,8.81152344 C52.6501515,8.81152344 53.4558075,9.13744791 54.0563965,9.78930664 C54.6569854,10.4411654 54.9572754,11.3237249 54.9572754,12.4370117 L54.9572754,13.2353516 L49.4494629,13.2353516 C49.4738771,14.1484421 49.7058083,14.8417945 50.1452637,15.3154297 C50.584719,15.7890649 51.2072714,16.0258789 52.0129395,16.0258789 C52.4426291,16.0258789 52.8503399,15.9880375 53.236084,15.9123535 C53.6218281,15.8366695 54.0734837,15.6889659 54.5910645,15.4692383 L54.5910645,16.6264648 C54.1467263,16.8168955 53.72925,16.9511715 53.338623,17.0292969 C52.9479961,17.1074223 52.4865749,17.1464844 51.9543457,17.1464844 Z M51.6247559,9.88818359 C50.9948699,9.88818359 50.496828,10.0908183 50.1306152,10.4960938 C49.7644025,10.9013692 49.5471195,11.4653284 49.4787598,12.1879883 L53.572998,12.1879883 C53.5632324,11.4360314 53.3898943,10.864748 53.0529785,10.4741211 C52.7160628,10.0834941 52.2399933,9.88818359 51.6247559,9.88818359 Z M60.7434082,8.81152344 C61.0998553,8.81152344 61.4147936,8.84082002 61.6882324,8.89941406 L61.5270996,10.1152344 C61.2292466,10.0468747 60.9387221,10.0126953 60.6555176,10.0126953 C60.2307108,10.0126953 59.8364276,10.1298816 59.4726562,10.3642578 C59.1088849,10.598634 58.8244639,10.9221171 58.6193848,11.3347168 C58.4143056,11.7473165 58.3117676,12.2050756 58.3117676,12.7080078 L58.3117676,17 L56.9934082,17 L56.9934082,8.95800781 L58.0773926,8.95800781 L58.223877,10.4301758 L58.2824707,10.4301758 C58.5900894,9.89794656 58.9538553,9.49511855 59.3737793,9.22167969 C59.7937033,8.94824082 60.2502417,8.81152344 60.7434082,8.81152344 Z M64.5080566,17 L63.1896973,17 L63.1896973,8.95800781 L64.5080566,8.95800781 L64.5080566,17 Z M63.0871582,6.78271484 C63.0871582,6.48974463 63.1616203,6.27734441 63.3105469,6.14550781 C63.4594734,6.01367122 63.6437977,5.94775391 63.8635254,5.94775391 C64.0686045,5.94775391 64.2480461,6.01367122 64.4018555,6.14550781 C64.5556648,6.27734441 64.6325684,6.48974463 64.6325684,6.78271484 C64.6325684,7.07080222 64.5556648,7.28320244 64.4018555,7.41992188 C64.2480461,7.55664131 64.0686045,7.625 63.8635254,7.625 C63.6437977,7.625 63.4594734,7.55664131 63.3105469,7.41992188 C63.1616203,7.28320244 63.0871582,7.07080222 63.0871582,6.78271484 Z M70.4772949,17.1464844 C69.2712342,17.1464844 68.3251987,16.7814978 67.6391602,16.0515137 C66.9531216,15.3215296 66.6101074,14.3169009 66.6101074,13.0375977 C66.6101074,11.7485287 66.9299284,10.7219276 67.5695801,9.95776367 C68.2092317,9.19359969 69.0734809,8.81152344 70.1623535,8.81152344 C71.1731008,8.81152344 71.9787568,9.13744791 72.5793457,9.78930664 C73.1799346,10.4411654 73.4802246,11.3237249 73.4802246,12.4370117 L73.4802246,13.2353516 L67.9724121,13.2353516 C67.9968263,14.1484421 68.2287576,14.8417945 68.6682129,15.3154297 C69.1076682,15.7890649 69.7302206,16.0258789 70.5358887,16.0258789 C70.9655783,16.0258789 71.3732891,15.9880375 71.7590332,15.9123535 C72.1447773,15.8366695 72.596433,15.6889659 73.1140137,15.4692383 L73.1140137,16.6264648 C72.6696755,16.8168955 72.2521992,16.9511715 71.8615723,17.0292969 C71.4709453,17.1074223 71.0095241,17.1464844 70.4772949,17.1464844 Z M70.1477051,9.88818359 C69.5178191,9.88818359 69.0197772,10.0908183 68.6535645,10.4960938 C68.2873517,10.9013692 68.0700687,11.4653284 68.001709,12.1879883 L72.0959473,12.1879883 C72.0861816,11.4360314 71.9128435,10.864748 71.5759277,10.4741211 C71.239012,10.0834941 70.7629425,9.88818359 70.1477051,9.88818359 Z M80.994873,17 L80.994873,11.8583984 C80.994873,11.2040983 80.8496108,10.7170426 80.559082,10.3972168 C80.2685532,10.077391 79.8132355,9.91748047 79.1931152,9.91748047 C78.3679158,9.91748047 77.7685566,10.1457497 77.3950195,10.6022949 C77.0214825,11.0588402 76.8347168,11.8022409 76.8347168,12.8325195 L76.8347168,17 L75.5163574,17 L75.5163574,8.95800781 L76.5783691,8.95800781 L76.776123,10.0566406 L76.8493652,10.0566406 C77.0983899,9.66113083 77.4475075,9.35473741 77.8967285,9.13745117 C78.3459495,8.92016493 78.84155,8.81152344 79.3835449,8.81152344 C80.369878,8.81152344 81.1022925,9.05077886 81.5808105,9.52929688 C82.0593286,10.0078149 82.298584,10.7524364 82.298584,11.7631836 L82.298584,17 L80.994873,17 Z M88.0114746,17.1464844 C86.8542423,17.1464844 85.9533724,16.7912633 85.3088379,16.0808105 C84.6643034,15.3703578 84.342041,14.3510809 84.342041,13.0229492 C84.342041,11.6752862 84.6679655,10.6364783 85.3198242,9.90649414 C85.9716829,9.17651002 86.9006287,8.81152344 88.1066895,8.81152344 C88.4973164,8.81152344 88.8842754,8.85180624 89.2675781,8.93237305 C89.6508808,9.01293986 89.9670398,9.11669858 90.2160645,9.24365234 L89.8132324,10.3422852 C89.1345181,10.0883776 88.5559106,9.96142578 88.0773926,9.96142578 C87.2668417,9.96142578 86.6687031,10.2165502 86.282959,10.7268066 C85.8972149,11.2370631 85.7043457,11.9975535 85.7043457,13.0083008 C85.7043457,13.9799853 85.8972149,14.7233861 86.282959,15.2385254 C86.6687031,15.7536647 87.2399865,16.0112305 87.9968262,16.0112305 C88.7048375,16.0112305 89.4006313,15.854982 90.0842285,15.5424805 L90.0842285,16.7143555 C89.5275851,17.0024428 88.836674,17.1464844 88.0114746,17.1464844 Z M95.4089355,17.1464844 C94.2028748,17.1464844 93.2568394,16.7814978 92.5708008,16.0515137 C91.8847622,15.3215296 91.541748,14.3169009 91.541748,13.0375977 C91.541748,11.7485287 91.8615691,10.7219276 92.5012207,9.95776367 C93.1408723,9.19359969 94.0051215,8.81152344 95.0939941,8.81152344 C96.1047414,8.81152344 96.9103974,9.13744791 97.5109863,9.78930664 C98.1115753,10.4411654 98.4118652,11.3237249 98.4118652,12.4370117 L98.4118652,13.2353516 L92.9040527,13.2353516 C92.9284669,14.1484421 93.1603982,14.8417945 93.5998535,15.3154297 C94.0393088,15.7890649 94.6618612,16.0258789 95.4675293,16.0258789 C95.8972189,16.0258789 96.3049297,15.9880375 96.6906738,15.9123535 C97.0764179,15.8366695 97.5280736,15.6889659 98.0456543,15.4692383 L98.0456543,16.6264648 C97.6013161,16.8168955 97.1838398,16.9511715 96.7932129,17.0292969 C96.4025859,17.1074223 95.9411648,17.1464844 95.4089355,17.1464844 Z M95.0793457,9.88818359 C94.4494597,9.88818359 93.9514178,10.0908183 93.5852051,10.4960938 C93.2189923,10.9013692 93.0017093,11.4653284 92.9333496,12.1879883 L97.0275879,12.1879883 C97.0178222,11.4360314 96.8444841,10.864748 96.5075684,10.4741211 C96.1706526,10.0834941 95.6945832,9.88818359 95.0793457,9.88818359 Z M108.153076,8.82617188 C109.212652,8.82617188 110.030515,9.19115846 110.606689,9.92114258 C111.182864,10.6511267 111.470947,11.6704036 111.470947,12.9790039 C111.470947,14.3071355 111.177981,15.3337366 110.592041,16.0588379 C110.006101,16.7839392 109.19312,17.1464844 108.153076,17.1464844 C107.611081,17.1464844 107.127688,17.0488291 106.702881,16.8535156 C106.278074,16.6582021 105.931398,16.3676777 105.662842,15.9819336 L105.560303,15.9819336 C105.408935,16.567874 105.318604,16.9072261 105.289307,17 L104.344482,17 L104.344482,5.60351562 L105.662842,5.60351562 L105.662842,8.37207031 C105.662842,8.92383088 105.638428,9.47558318 105.5896,10.0273438 L105.662842,10.0273438 C106.204837,9.2265585 107.034907,8.82617188 108.153076,8.82617188 Z M107.93335,9.91748047 C107.122799,9.91748047 106.54175,10.1469704 106.190186,10.605957 C105.838621,11.0649437 105.662842,11.8413031 105.662842,12.9350586 L105.662842,12.9936523 C105.662842,14.0922906 105.842283,14.8771949 106.201172,15.3483887 C106.56006,15.8195824 107.147213,16.0551758 107.962646,16.0551758 C108.685306,16.0551758 109.223631,15.7902859 109.577637,15.260498 C109.931642,14.7307102 110.108643,13.965337 110.108643,12.9643555 C110.108643,11.9487254 109.930422,11.1870143 109.573975,10.6791992 C109.217528,10.1713842 108.670658,9.91748047 107.93335,9.91748047 Z M112.313232,8.95800781 L113.726807,8.95800781 L115.462646,13.5356445 C115.828859,14.5317433 116.053466,15.2617164 116.136475,15.7255859 L116.195068,15.7255859 C116.239014,15.544921 116.339111,15.2067896 116.495361,14.7111816 C116.651612,14.2155737 116.783447,13.8188491 116.890869,13.5209961 L118.52417,8.95800781 L119.945068,8.95800781 L116.480713,18.1132812 C116.143797,19.0019576 115.743411,19.6391582 115.279541,20.0249023 C114.815672,20.4106465 114.241947,20.6035156 113.55835,20.6035156 C113.192137,20.6035156 112.828371,20.5620121 112.467041,20.4790039 L112.467041,19.4316406 C112.711183,19.4902347 113.004149,19.5195312 113.345947,19.5195312 C113.765871,19.5195312 114.122313,19.4035656 114.415283,19.1716309 C114.708253,18.9396961 114.947509,18.5820337 115.133057,18.0986328 L115.550537,17.0292969 L112.313232,8.95800781 Z" id="an-experience-by"></path>
                </g>
            </g>
        </g>
    </g>
</svg>