<?xml version="1.0" encoding="UTF-8"?>
<svg width="73px" height="53px" viewBox="0 0 73 53" version="1.1" xmlns="http://www.w3.org/2000/svg" xmlns:xlink="http://www.w3.org/1999/xlink">
    <!-- Generator: Sketch 41.1 (35376) - http://www.bohemiancoding.com/sketch -->
    <title>G +</title>
    <desc>Created with Sketch.</desc>
    <defs>
        <path d="M1065.01076,665.522144 C1064.66781,656.499649 1072.57087,648.162461 1081.60182,648.053778 C1086.20514,647.661312 1090.68288,649.449146 1094.16617,652.364868 C1092.73759,653.935336 1091.28426,655.488898 1089.73009,656.942834 C1086.66463,655.079526 1082.97182,653.659402 1079.3877,654.920728 C1073.60698,656.566671 1070.10678,663.391959 1072.24542,669.047698 C1074.01635,674.954011 1081.2009,678.195782 1086.83128,675.714188 C1089.747,674.670228 1091.66827,671.980326 1092.51237,669.08936 C1089.17037,669.022942 1085.82898,669.064604 1082.48758,668.972827 C1082.47913,666.984533 1082.47068,665.004089 1082.47913,663.015795 C1088.05094,663.007946 1093.63181,662.991039 1099.21207,663.041154 C1099.55503,667.911357 1098.83651,673.124515 1095.67022,677.034082 C1091.33437,682.614951 1083.32263,684.25244 1076.80648,682.063687 C1069.88942,679.791006 1064.86042,672.823826 1065.01076,665.522144 Z M1110.07252,658.0037 L1115.04355,658.0037 C1115.05201,659.665946 1115.06831,661.336644 1115.07676,662.999493 C1116.73901,663.015795 1118.41031,663.024248 1120.07256,663.032701 L1120.07256,668.011587 C1118.41031,668.02004 1116.73901,668.028493 1115.07676,668.036947 C1115.05986,669.707645 1115.05201,671.370494 1115.04355,673.041192 C1113.38071,673.032739 1111.71846,673.041192 1110.06406,673.041192 C1110.04776,671.370494 1110.04776,669.707645 1110.03086,668.0454 C1108.36861,668.028493 1106.69731,668.02004 1105.03506,668.011587 L1105.03506,663.032701 C1106.69731,663.024248 1108.36016,663.015795 1110.03086,662.999493 C1110.03931,661.336644 1110.05622,659.665946 1110.07252,658.0037 Z" id="path-1"></path>
        <filter x="-50%" y="-50%" width="200%" height="200%" filterUnits="objectBoundingBox" id="filter-2">
            <feOffset dx="0" dy="0" in="SourceAlpha" result="shadowOffsetOuter1"></feOffset>
            <feGaussianBlur stdDeviation="4.5" in="shadowOffsetOuter1" result="shadowBlurOuter1"></feGaussianBlur>
            <feColorMatrix values="0 0 0 0 1   0 0 0 0 1   0 0 0 0 1  0 0 0 0.577332428 0" type="matrix" in="shadowBlurOuter1"></feColorMatrix>
        </filter>
    </defs>
    <g id="Desktop-🔥-🖥" stroke="none" stroke-width="1" fill="none" fill-rule="evenodd">
        <g id="Credits-Copy" transform="translate(-1056.000000, -639.000000)">
            <g id="G-+">
                <use fill="black" fill-opacity="1" filter="url(#filter-2)" xlink:href="#path-1"></use>
                <use fill="#FFFFFF" fill-rule="evenodd" xlink:href="#path-1"></use>
            </g>
        </g>
    </g>
</svg>