<svg width="132" height="19" viewBox="0 0 132 19" xmlns="http://www.w3.org/2000/svg">
  <g fill="none" fill-rule="evenodd">
    <path d="M13.463 14.5H9.615L3.405 3.7h-.09c.125 1.907.187 3.267.187 4.08v6.72H.797V.223h3.818l6.2 10.693h.07c-.098-1.855-.147-3.167-.147-3.936V.223h2.725V14.5zm5.732-5.48c0 1.082.178 1.9.533 2.453.354.553.932.83 1.733.83.795 0 1.366-.275 1.715-.825.348-.55.522-1.37.522-2.457 0-1.08-.176-1.89-.527-2.43-.352-.54-.928-.81-1.73-.81-.793 0-1.366.268-1.717.805-.352.537-.528 1.35-.528 2.436zm7.55 0c0 1.78-.47 3.17-1.407 4.17-.938 1.004-2.243 1.505-3.916 1.505-1.048 0-1.973-.23-2.774-.688-.8-.46-1.416-1.118-1.845-1.978-.43-.86-.645-1.863-.645-3.01 0-1.782.466-3.17 1.397-4.16.93-.988 2.24-1.483 3.925-1.483 1.05 0 1.973.228 2.774.684.8.456 1.416 1.11 1.846 1.963.43.853.644 1.853.644 2.998zm7.06 3.302c.52 0 1.146-.114 1.875-.342v2.217c-.743.332-1.654.498-2.735.498-1.19 0-2.06-.3-2.602-.903-.544-.602-.816-1.506-.816-2.71V5.818h-1.425v-1.26l1.64-.995.86-2.305h1.904v2.324h3.056v2.236h-3.056v5.264c0 .423.12.736.356.938.238.2.552.302.943.302zm6.455-3.3c0 1.08.177 1.897.532 2.45.355.554.933.83 1.733.83.795 0 1.366-.274 1.714-.824.348-.55.522-1.37.522-2.457 0-1.08-.176-1.89-.528-2.43-.35-.54-.927-.81-1.728-.81-.794 0-1.367.268-1.72.805-.35.537-.526 1.35-.526 2.436zm7.55 0c0 1.777-.47 3.167-1.408 4.17-.937 1.002-2.242 1.503-3.916 1.503-1.048 0-1.972-.23-2.773-.688-.8-.46-1.416-1.118-1.846-1.978-.43-.86-.644-1.863-.644-3.01 0-1.782.465-3.17 1.396-4.16.93-.988 2.24-1.483 3.925-1.483 1.048 0 1.973.228 2.773.684.8.456 1.416 1.11 1.846 1.963.43.853.645 1.853.645 2.998z" fill="#2B496A"/>
    <path d="M59.593 5.916c.918 0 1.627.316 2.126.95.5.632.748 1.515.748 2.65 0 1.15-.254 2.04-.76 2.668-.51.63-1.214.943-2.115.943-.47 0-.89-.085-1.257-.254-.368-.17-.67-.42-.9-.755h-.09c-.13.507-.21.802-.235.882h-.818V3.123h1.143v2.4c0 .478-.022.956-.064 1.434h.065c.47-.694 1.19-1.04 2.158-1.04zm-.19.946c-.703 0-1.207.2-1.51.596-.306.398-.458 1.07-.458 2.02v.05c0 .952.155 1.632.466 2.04.312.41.82.613 1.528.613.626 0 1.093-.228 1.4-.688.306-.46.46-1.122.46-1.99 0-.88-.155-1.54-.464-1.98-.31-.44-.783-.66-1.422-.66zm3.795-.832h1.225l1.505 3.968c.317.863.512 1.495.584 1.898h.05c.04-.157.125-.45.26-.88.136-.43.25-.773.344-1.03L68.58 6.03h1.233l-3.003 7.935c-.292.77-.64 1.322-1.04 1.657-.403.334-.9.5-1.493.5-.317 0-.632-.035-.945-.107v-.908c.21.05.465.077.76.077.365 0 .674-.1.928-.302.254-.2.46-.51.622-.93l.362-.927-2.806-6.995z" fill="#1A4473" opacity=".313"/>
    <g fill="#1A4473" opacity=".458">
      <path d="M89.028 6.605h-6.644V8.57h4.712c-.233 2.76-2.533 3.935-4.704 3.935-2.778 0-5.202-2.18-5.202-5.236C77.19 4.292 79.5 2 82.398 2c2.235 0 3.552 1.422 3.552 1.422l1.38-1.426S85.56.03 82.328.03c-4.115 0-7.3 3.463-7.3 7.204 0 3.666 2.996 7.24 7.405 7.24 3.878 0 6.716-2.648 6.716-6.566 0-.826-.12-1.304-.12-1.304zM94.47 5.18c-2.725 0-4.68 2.126-4.68 4.606 0 2.516 1.896 4.68 4.713 4.68 2.55 0 4.64-1.943 4.64-4.626 0-3.076-2.43-4.66-4.672-4.66zm.028 1.824c1.34 0 2.612 1.08 2.612 2.823 0 1.706-1.266 2.817-2.618 2.817-1.486 0-2.658-1.186-2.658-2.83 0-1.608 1.158-2.81 2.664-2.81zM104.65 5.18c-2.726 0-4.68 2.126-4.68 4.606 0 2.516 1.895 4.68 4.712 4.68 2.55 0 4.64-1.943 4.64-4.626 0-3.076-2.43-4.66-4.672-4.66zm.027 1.824c1.34 0 2.612 1.08 2.612 2.823 0 1.706-1.266 2.817-2.62 2.817-1.485 0-2.657-1.186-2.657-2.83 0-1.608 1.158-2.81 2.664-2.81zM114.634 5.185c-2.502 0-4.47 2.186-4.47 4.64 0 2.795 2.28 4.648 4.427 4.648 1.328 0 2.034-.525 2.555-1.128v.916c0 1.603-.976 2.562-2.448 2.562-1.422 0-2.135-1.055-2.383-1.653l-1.79.745c.635 1.338 1.913 2.734 4.188 2.734 2.488 0 4.385-1.564 4.385-4.842V5.465h-1.952v.786c-.6-.644-1.42-1.064-2.51-1.064zm.182 1.82c1.226 0 2.486 1.045 2.486 2.83 0 1.814-1.257 2.813-2.514 2.813-1.334 0-2.575-1.08-2.575-2.796 0-1.783 1.29-2.846 2.602-2.846zM127.776 5.174c-2.36 0-4.343 1.873-4.343 4.637 0 2.926 2.21 4.66 4.57 4.66 1.97 0 3.178-1.074 3.9-2.037l-1.61-1.068c-.417.646-1.115 1.278-2.28 1.278-1.31 0-1.91-.715-2.284-1.407l6.24-2.584-.323-.757c-.603-1.482-2.01-2.72-3.87-2.72zm.08 1.786c.852 0 1.464.45 1.724.992l-4.17 1.738c-.18-1.346 1.1-2.73 2.447-2.73zM120.457 14.195h2.05V.51h-2.05"/>
    </g>
  </g>
</svg>
