<?xml version="1.0" encoding="UTF-8"?>
<svg width="58px" height="53px" viewBox="0 0 58 53" version="1.1" xmlns="http://www.w3.org/2000/svg" xmlns:xlink="http://www.w3.org/1999/xlink">
    <!-- Generator: Sketch 41.1 (35376) - http://www.bohemiancoding.com/sketch -->
    <title>path3611</title>
    <desc>Created with Sketch.</desc>
    <defs>
        <path d="M1000.5439,683 C1016.79627,683 1025.68344,669.535745 1025.68344,657.860466 C1025.68344,657.478035 1025.67565,657.09733 1025.65849,656.718346 C1027.38373,655.471146 1028.8833,653.914729 1030.0659,652.142979 C1028.48278,652.846683 1026.77908,653.320414 1024.99183,653.534023 C1026.81612,652.440137 1028.21663,650.709733 1028.87727,648.646855 C1027.17012,649.658914 1025.27951,650.394488 1023.26659,650.791559 C1021.65419,649.074073 1019.35875,648 1016.81698,648 C1011.93756,648 1007.98063,651.956935 1007.98063,656.834625 C1007.98063,657.527992 1008.05815,658.202412 1008.20974,658.849266 C1000.86607,658.479758 994.354443,654.963824 989.996994,649.617571 C989.238165,650.923342 988.800612,652.440137 988.800612,654.058569 C988.800612,657.124031 990.360473,659.830319 992.732566,661.413437 C991.282955,661.368649 989.921197,660.970714 988.730843,660.308355 C988.729542,660.345426 988.729542,660.381568 988.729542,660.421189 C988.729542,664.700258 991.775194,668.27304 995.81826,669.082686 C995.075797,669.285099 994.294573,669.393625 993.488372,669.393625 C992.919897,669.393625 992.366064,669.337674 991.827736,669.234281 C992.952627,672.745047 996.214469,675.299741 1000.08183,675.371233 C997.057708,677.741601 993.248062,679.153317 989.107666,679.153317 C988.395348,679.153317 987.691645,679.1128 987,679.031007 C990.910423,681.537469 995.553834,683 1000.54436,683" id="path-1"></path>
        <filter x="-50%" y="-50%" width="200%" height="200%" filterUnits="objectBoundingBox" id="filter-2">
            <feOffset dx="0" dy="0" in="SourceAlpha" result="shadowOffsetOuter1"></feOffset>
            <feGaussianBlur stdDeviation="4.5" in="shadowOffsetOuter1" result="shadowBlurOuter1"></feGaussianBlur>
            <feColorMatrix values="0 0 0 0 1   0 0 0 0 1   0 0 0 0 1  0 0 0 0.577332428 0" type="matrix" in="shadowBlurOuter1"></feColorMatrix>
        </filter>
    </defs>
    <g id="Desktop-🔥-🖥" stroke="none" stroke-width="1" fill="none" fill-rule="evenodd">
        <g id="Credits-Copy" transform="translate(-980.000000, -639.000000)">
            <g id="path3611">
                <use fill="black" fill-opacity="1" filter="url(#filter-2)" xlink:href="#path-1"></use>
                <use fill="#FFFFFF" fill-rule="evenodd" xlink:href="#path-1"></use>
            </g>
        </g>
    </g>
</svg>