<?xml version="1.0" encoding="UTF-8"?>
<svg width="132px" height="21px" viewBox="0 0 132 21" version="1.1" xmlns="http://www.w3.org/2000/svg" xmlns:xlink="http://www.w3.org/1999/xlink">
    <!-- Generator: Sketch 41 (35326) - http://www.bohemiancoding.com/sketch -->
    <title>Logo</title>
    <desc>Created with Sketch.</desc>
    <defs></defs>
    <g id="Desktop-🔥-🖥" stroke="none" stroke-width="1" fill="none" fill-rule="evenodd">
        <g id="iPhone-7-Copy" transform="translate(-25.000000, -25.000000)">
            <g id="Logo" transform="translate(24.000000, 16.000000)">
                <g id="Google" transform="translate(76.000000, 10.500000)" fill="#1A4473" opacity="0.458389946">
                    <path d="M14.02827,6.60464761 L7.38378,6.60464761 L7.38378,8.57109076 L12.096141,8.57109076 C11.8633416,11.3285795 9.563061,12.5045455 7.39176,12.5045455 C4.613808,12.5045455 2.189712,10.3246366 2.189712,7.2692623 C2.189712,4.2928504 4.500492,2.00060904 7.397859,2.00060904 C9.633228,2.00060904 10.950441,3.42181915 10.950441,3.42181915 L12.330981,1.99600432 C12.330981,1.99600432 10.559022,0.0285947473 7.327293,0.0285947473 C3.212064,0.0285378989 0.028443,3.49253856 0.028443,7.23412999 C0.028443,10.9004541 3.023166,14.4754797 7.432173,14.4754797 C11.30994,14.4754797 14.148483,11.8261167 14.148483,7.90835206 C14.148483,7.08183311 14.0281617,6.60413597 14.0281617,6.60413597 L14.02827,6.60464761 Z" id="path2998"></path>
                    <path d="M19.4712,5.18053823 C16.744776,5.18053823 14.790873,7.30638431 14.790873,9.78571376 C14.790873,12.3017104 16.686066,14.4670662 19.503234,14.4670662 C22.053528,14.4670662 24.142863,12.5230213 24.142863,9.8397766 C24.142863,6.76439162 21.712497,5.18053823 19.4712,5.18053823 L19.4712,5.18053823 Z M19.4983109,7.00440559 C20.8390649,7.00440559 22.1095949,8.08549169 22.1095949,9.82749734 C22.1095949,11.5325515 20.8444799,12.6444495 19.4921549,12.6444495 C18.0062789,12.6444495 16.8340739,11.4575685 16.8340739,9.81396742 C16.8340739,8.20561237 17.9917439,7.00440559 19.4983109,7.00440559 L19.4983109,7.00440559 Z" id="path3000"></path>
                    <path d="M29.65026,5.18053823 C26.923836,5.18053823 24.969933,7.30638431 24.969933,9.78571376 C24.969933,12.3017104 26.865126,14.4670662 29.682294,14.4670662 C32.232588,14.4670662 34.321923,12.5230213 34.321923,9.8397766 C34.321923,6.76439162 31.891557,5.18053823 29.65026,5.18053823 L29.65026,5.18053823 Z M29.6773703,7.00440559 C31.0181243,7.00440559 32.2886543,8.08549169 32.2886543,9.82749734 C32.2886543,11.5325515 31.0235393,12.6444495 29.6712143,12.6444495 C28.1853383,12.6444495 27.0131333,11.4575685 27.0131333,9.81396742 C27.0131333,8.20561237 28.1708033,7.00440559 29.6773703,7.00440559 L29.6773703,7.00440559 Z" id="path3005"></path>
                    <path d="M39.63438,5.18542719 C37.131852,5.18542719 35.164782,7.37141888 35.164782,9.82499601 C35.164782,12.6198341 37.445295,14.4732058 39.591231,14.4732058 C40.918134,14.4732058 41.62368,13.9478981 42.144603,13.3449355 L42.144603,14.2605359 C42.144603,15.8625239 41.169333,16.8218408 39.697251,16.8218408 C38.275158,16.8218408 37.56186,15.767246 37.313967,15.1688029 L35.52468,15.9148245 C36.159432,17.2534338 37.437258,18.6494033 39.712071,18.6494033 C42.200235,18.6494033 44.096625,17.0863564 44.096625,13.80825 L44.096625,5.46460971 L42.14466,5.46460971 L42.14466,6.25116423 C41.54445,5.60610539 40.72365,5.18554089 39.63438,5.18554089 L39.63438,5.18542719 Z M39.815526,7.0055994 C41.042451,7.0055994 42.302322,8.05047307 42.302322,9.83483078 C42.302322,11.6485223 41.04513,12.6480878 39.788394,12.6480878 C38.454252,12.6480878 37.212849,11.5676838 37.212849,9.85205585 C37.212849,8.06940359 38.502132,7.0055994 39.815469,7.0055994 L39.815526,7.0055994 Z" id="path3007"></path>
                    <path d="M52.77573,5.17434176 C50.415132,5.17434176 48.433071,7.04749668 48.433071,9.81146609 C48.433071,12.7361459 50.642334,14.4707045 53.002476,14.4707045 C54.972282,14.4707045 56.181252,13.3959285 56.902758,12.4329734 L55.293363,11.3649624 C54.8757354,12.0113856 54.177531,12.643142 53.012337,12.643142 C51.703503,12.643142 51.101697,11.9283301 50.72886,11.2359166 L56.9715,8.65249767 L56.6474037,7.89539063 C56.0443437,6.41278424 54.6375837,5.174626 52.7759637,5.174626 L52.77573,5.17434176 Z M52.8570576,6.96012068 C53.7076686,6.96012068 54.3198486,7.41116729 54.5798256,7.95195479 L50.4109026,9.68981051 C50.2311702,8.34437932 51.5092356,6.96012068 52.8570576,6.96012068 L52.8570576,6.96012068 Z" id="path3011"></path>
                    <polygon id="path3015" points="45.45693 14.1950465 47.507505 14.1950465 47.507505 0.508793218 45.45693 0.508793218"></polygon>
                </g>
                <text id="by" opacity="0.313292572" font-family="NotoSans, Noto Sans" font-size="13" font-weight="normal" fill="#1A4473">
                    <tspan x="55.1875" y="23.5">by</tspan>
                </text>
                <text id="Noto" font-family="NotoSans-Bold, Noto Sans" font-size="20" font-weight="bold" line-spacing="33" fill="#2B496A">
                    <tspan x="0" y="21">Noto</tspan>
                </text>
            </g>
        </g>
    </g>
</svg>